<?xml version="1.0" encoding="UTF-8"?>
<svg width="2188px" height="638px" viewBox="0 0 2188 638" version="1.1" xmlns="http://www.w3.org/2000/svg" xmlns:xlink="http://www.w3.org/1999/xlink">
    <!-- Generator: Sketch 47.1 (45422) - http://www.bohemiancoding.com/sketch -->
    <title>waves</title>
    <desc>Created with Sketch.</desc>
    <defs>
        <linearGradient x1="50%" y1="0%" x2="48.1043006%" y2="80.270705%" id="linearGradient-1">
            <stop stop-color="#FFFFFF" offset="0%"></stop>
            <stop stop-color="#D8D8D8" stop-opacity="0" offset="100%"></stop>
        </linearGradient>
    </defs>
    <g id="Page-1" stroke="none" stroke-width="1" fill="none" fill-rule="evenodd" opacity="0.2">
        <g id="waves" fill="url(#linearGradient-1)">
            <g id="Background-1" transform="translate(-47.000000, -511.000000)">
                <path d="M78.1869382,936.26938 C152.764551,984.26938 242.542696,1002.76938 347.521374,991.76938 C504.989391,975.26938 543.465739,906.255676 731.572329,898.76938 C919.678919,891.283084 1032.25786,991.76938 1243.87778,991.76938 C1455.49769,991.76938 1483.28616,876.26938 1740.50768,840.76938 C1911.98868,817.102713 2076.81946,836.436047 2235,898.76938 L2235,1131.76938 C749.622961,1152.10271 18.809858,1152.10271 42.5606901,1131.76938 C66.3115222,1111.43605 78.1869382,1046.26938 78.1869382,936.26938 Z" id="Line"></path>
                <path d="M2234.43931,834.466259 C2101.11797,872.39392 1999.46441,888.233532 1929.47863,881.985095 C1772.01061,867.926112 1733.53426,809.122322 1545.42767,802.743551 C1357.32108,796.364781 1244.74214,881.985095 1033.12222,881.985095 C821.502309,881.985095 793.713836,783.57221 536.492324,753.324094 C365.011316,733.158683 200.180542,749.631836 42,802.743551 L47,1149 L2239.43931,1149 L2234.43931,834.466259 Z" id="Line"></path>
                <path d="M47,661.964544 C254.320965,704.834435 409.056585,720.76938 511.20686,709.76938 C664.432272,693.26938 701.871965,624.255676 884.910466,616.76938 C1067.94897,609.283084 1177.49474,709.76938 1383.41305,709.76938 C1589.33136,709.76938 1753.21449,549 2020.33182,549 C2082.63415,549 2154.15043,559.285774 2234.88064,579.857322 L2235,1158.96454 L47,1158.96454 L47,661.964544 Z" id="Path"></path>
            </g>
        </g>
    </g>
</svg>